<?xml version="1.0" encoding="utf-8"?>
<!-- Generator: Adobe Illustrator 24.0.1, SVG Export Plug-In . SVG Version: 6.00 Build 0)  -->
<svg version="1.1" id="레이어_1" xmlns="http://www.w3.org/2000/svg" xmlns:xlink="http://www.w3.org/1999/xlink" x="0px"
	 y="0px" viewBox="0 0 304.7 161" style="enable-background:new 0 0 304.7 161;" xml:space="preserve">
<g>
	<path d="M252.6,91.3l-4.2-5.7h-50.2l20.4,29.5c-21.2,4.2-41.3-13.6-41-34.3c0.3-21.1,17.3-36.9,37.7-36.8
		C237.6,44.2,260,68.3,252.6,91.3 M136.5,56.8c-1.1,3.5-2,7.1-2.6,10.8c-0.3,1.6-0.5,3.3-0.7,4.9c-0.6,12.1,0.6,17.7,0.6,17.7
		c1.7,12.6,6.6,24.9,14.1,35.7l0,0c14.2,20.4,37.6,35.1,66.8,35.1c19.3,0,33-8.2,35.5-9.6l5.1,6.8h49.5l-22-30.6
		c0,0,14.9-19.4,15-44.8c0.1-49.7-34.7-82-83.3-82.1c-28.1-0.1-52,13.7-66.6,33.8l0,0C142.9,41.3,139.1,48.8,136.5,56.8"/>
	<path d="M147.8,34.5c-0.5-0.7-1-1.4-1.6-2.2C134.2,16.3,113.3,0,80.8,0C42.6,0,13.1,25.5,3.4,56.7c-0.1,0.4-0.2,0.8-0.3,1.1
		c0,0,0,0,0,0.1c-2,7-3.1,14.4-3.1,22c0.1,7.3,1,14.3,2.7,20.9c6.1,22.8,22.1,41.6,43.1,51.7c0.2,0.1,0.3,0.2,0.5,0.2
		c0.1,0.1,0.2,0.1,0.3,0.1c10.6,4.8,22.5,7.5,35.2,7.6c26.8-0.2,50.5-13.4,65.1-33.4c0.3-0.4,0.6-0.8,0.9-1.3l0,0
		c2.8-4,5.2-8.2,7.2-12.7c4.6-10.1,7.2-21.3,7.2-33.2c0-4.2-0.3-8.4-1-12.4l0,0h-27.5l0,0h-2.6H87.2v37.8h20.5
		c0,0.9-10.5,11.1-26.2,11.1c-17.3,0-36.9-13.7-37.3-35.6c-0.4-22.7,19.2-37.5,37.3-36.9c14.7,0.5,20.3,4.7,28.5,12.8
		c0,0,11.8,0,23.9,0c0.9,0,1.8,0,2.8,0c10.8,0,21,0,22.3,0c-0.4-1.4-0.9-3-1.5-4.7C155.4,47,152.3,40.8,147.8,34.5L147.8,34.5
		L147.8,34.5"/>
</g>
</svg>
