<?xml version="1.0" encoding="utf-8"?>
<!-- Generator: Adobe Illustrator 21.1.0, SVG Export Plug-In . SVG Version: 6.00 Build 0)  -->
<svg version="1.1" id="레이어_1" xmlns="http://www.w3.org/2000/svg" xmlns:xlink="http://www.w3.org/1999/xlink" x="0px"
	 y="0px" viewBox="0 0 498.9 144.9" style="enable-background:new 0 0 498.9 144.9;" xml:space="preserve">
<style type="text/css">
	.st0{fill:#D70C29;}
</style>
<g>
	<g>
		<path class="st0" d="M212.2,121.8c-2.6-1.5-9.1-0.7-9.1-0.7c-3.4,0.3-7.1,2.1-7.1,2.1c-2.4,0.1-4.1-1.4-4.1-1.4l-3.1-0.1
			c-0.4-0.2-1.6-2.7-1.6-2.7c-1.2-1.8-0.6-4.7-0.6-4.7l0.7-5.8c0.2-1.1,1.4-4.6,1.4-4.6c0.9-3.7-1.1-5.8-1.1-5.8
			c-0.5-1.3,0.1-3.4,0.1-3.4c0.6-1.7,0.4-5.5,0.4-5.5c0-1.4-1.2-3.6-1.2-3.6c-1.1-2-0.5-2.3-0.5-2.3l1.6-4.5
			c1.1-2.7-0.4-4.9-0.4-4.9c-0.9-1.2-1.6-4.2-1.6-4.2c-0.4-1.3-0.2-7.9-0.2-7.9V49.9c0.6-0.4,2.1-4.1,2.1-4.1
			c0.7-1.7,0.2-5.6,0.2-5.6c-0.1-0.4-0.2-2.5-0.2-2.5c0-0.8,1.1-3,1.1-3L191,29c0.8-3.1-1.5-5.5-1.5-5.5c-0.5-0.6-1.4-2.7-1.4-2.7
			l-1.2-6.1c-0.5-1.5-1.7-7.6-1.7-7.6c-1.4-2-4.3-3.4-4.3-3.4c-3.6-1.3-5.3,1.1-5.3,1.1l-1.8,0c-0.2-0.4-1.3-1.1-1.3-1.1
			c-2-0.8-5.2-0.2-5.2-0.2c-1.2,0.7-3.9,0.4-3.9,0.4l-1.8-1.1c-1.5-0.7-3-0.2-3-0.2c-1.2,0.5-1.5,0-1.5,0l-4.6-2.4
			c-1-0.3-2.8-0.2-2.8-0.2c-6.3,2-8.5,11-8.5,11c-1.6,3.9,0,9.1,0,9.1c3.1,5.9,7.2,6.5,7.2,6.5l2.5-0.1c0.2,1.4,1.1,2.8,1.1,2.8
			c0.6,1.1,2.8,0.8,2.8,0.8c0.3-0.5,1.2-0.7,1.2-0.7c3,2,4.9,1.6,4.9,1.6c0.9-0.3,2.1-1.9,2.1-1.9c0.1,0.2,1,2.5,1,2.5
			c0.1,1.2,0.5,2.1,0.5,2.1c0,0.7,3,6.3,3,6.3l-0.1,0.6c-1.5,1.1-1.6,2.6-1.6,2.6c-0.1,1.2,1.2,3,1.2,3l-0.1,2.8l-1.1,2.3
			c-1,2.3-0.7,3.1-0.7,3.1c-0.3,2,2.8,5.1,2.8,5.1c0.9,1.2,0.4,1.8,0.4,1.8c-1.7,2.8-1.6,8.1-1.6,8.1c0.1,3.1,1.2,7.2,1.2,7.2
			l-0.3,9.1L166.4,96c-0.4,1.5,1.7,2.8,1.7,2.8c0.5,1.1-0.6,2-0.6,2c-0.5,0.6-0.2,2.9-0.2,2.9c-0.7,0.6-0.8,2.7-0.8,2.7l-0.8,9.3
			c-0.7,0.8-1,1.6-1,1.6c-0.2,2-0.5,3.5-0.5,3.5l-0.7-0.1c-1.6-1.2-6.5-1.1-6.5-1.1c-1.8-0.7-4.3,0.1-4.3,0.1c-2.5,0.5-2.5,0-2.5,0
			c-1.7-0.5-4.9-0.4-4.9-0.4c-3.6,0.5-5.2,3.3-5.2,3.3c-1,0.1-3.3,1.1-3.3,1.1c-1.7,0.3-3.9-1.3-3.9-1.3l-3.1,0
			c-0.7-1-1.9-6.7-1.9-6.7c-0.2-1.1,0.2-5.9,0.2-5.9c0.2-1.2,1.4-5.4,1.4-5.4c0.5-3.7-0.9-5.5-0.9-5.5c-0.7-1.1-0.3-3.3-0.3-3.3
			c0.9-2.2,0.5-6.1,0.5-6.1c0-0.8-1.4-4.2-1.4-4.2c-0.5-0.8-0.4-1.3-0.4-1.3c1-1.2,2-6,2-6c0.5-2.3-1.2-5-1.2-5
			c-1-1.6-1.3-5.4-1.3-5.4l0.2-17.3c0.9-1.2,2-4.6,2-4.6c0.4-2,0.1-5.6,0.1-5.6c-0.2-3,0.4-3.7,0.4-3.7c0.7-0.9,2.3-6,2.3-6
			c1-3.1-0.4-5.5-0.4-5.5c-0.5-0.9-2.1-3.3-2.1-3.3c-0.1-1-3-14.2-3-14.2c-1.4-1.9-4.7-3.4-4.7-3.4c-2.9-1.1-4.9,1.1-4.9,1.1
			c-1.1,0.3-2-0.1-2-0.1c-0.2-0.6-1.4-1.1-1.4-1.1c-2.5-0.5-5.1,0.1-5.1,0.1c-0.7,0.2-2.8,0.4-2.8,0.4l-0.9,0
			c-0.5-0.5-2.6-1.3-2.6-1.3c-1.9-0.5-3.9,0-3.9,0c-0.8,0.3-3.4-1.2-3.4-1.2c-3.3-2.1-4.9-1.6-4.9-1.6c-4.1,0.4-7.7,5.3-7.7,5.3
			c-3.1,3.3-4.5,8.4-4.5,8.4C76,18.5,79,22.7,79,22.7c2,3.3,7.8,5.4,7.8,5.4c1.7,0.2,1.7,1.6,1.7,1.6c1.1,1.8,3.4,1.4,3.4,1.4
			c1.6,0.4,2.5-0.7,2.5-0.7c1.1-1.2,1.5-0.9,1.5-0.9c0.8,1.1,3.3,2.1,3.3,2.1c2,0.7,3.3-1,3.3-1c1.5-1.9,1.7,0.1,1.7,0.1
			c0.2,0.1,0.7,2.6,0.7,2.6c0.4,2.1,2.8,6.1,2.8,6.1c0.6,0.5,0.5,1.7,0.5,1.7l-1.2,1.5c-1.1,1.2,0.3,3,0.3,3
			c0.3,0.3,0.6,2.4,0.6,2.4v0.9c-0.1,0.7-1.8,4.3-1.8,4.3c-1,3.7,2.4,6.6,2.4,6.6c0.8,0.5,0.8,1.7,0.8,1.7c-0.7,1.3-1.1,3.2-1.1,3.2
			c-1.1,2.7-0.5,7.2-0.5,7.2c0.8,1.8,1.1,7.2,1.1,7.2l-0.4,8.8l-0.8,8.8c-0.5,1.3,1.1,2.4,1.1,2.4c1,1.1,0,2.1,0,2.1
			c-0.8,1.1-0.3,3.2-0.3,3.2c-0.9,1.1-1,6.5-1,6.5l-0.8,8.2c-1,2.8-1.6,2.2-1.6,2.2c-1-0.3-3.3-1.1-3.3-1.1l-1.9-0.1l-0.1,0.3h-0.5
			c-0.4-0.7-2.7-0.5-2.7-0.5c-0.6,0.8-1.2,0.7-1.2,0.7c-0.6-0.5-2.1-0.7-2.1-0.7c-1.4-1-2.4-0.5-2.4-0.5c-1.1,0.3-2-0.4-2-0.4
			c-3.1-0.5-4,1.4-4,1.4c-1.9,0.9-2,2.1-2,2.1c-0.2,1.9-1.2,1.8-1.2,1.8c-1.7,0.4-1.8-0.9-1.8-0.9c-0.6-3.5-2.2-5.4-2.2-5.4
			c-0.8-0.8-0.4-1.2-0.4-1.2c0.6-0.8,1.6-2.6,1.6-2.6c1.1-2.1,1-4.2,1-4.2c-0.5-0.6-1.1-3.1-1.1-3.1c-1.2-2.6,0.3-3.4,0.3-3.4
			c1-0.4,0.6-2.4,0.6-2.4c-0.4-1-0.2-3.2-0.2-3.2c1.5-3.5,0.3-5.3,0.3-5.3c-1-1.5,0.1-3,0.1-3c1-2.1,0.9-4.3,0.9-4.3
			c0.5-5.1-0.4-5.3-0.4-5.3c-1.1-1-0.6-1.3-0.6-1.3c0.4-0.6,0.9-1.9,0.9-1.9c0.8-3.2-1.4-5-1.4-5c0.8-2,0.3-6.2,0.3-6.2
			c-0.3-2.9-3-8-3-8c-1.7-3.6-3.9-5.9-3.9-5.9c-2.5-0.1-2.2-2-2.2-2c-1.5-2.9-6.1-4.4-6.1-4.4c-2.9-0.4-2.9-0.9-2.9-0.9
			c-2.2-2.4-4.1-2.4-4.1-2.4c-2.5-0.4-6.1,0-6.1,0c-0.6-0.5-3.1-1.3-3.1-1.3c-3.5-1.3-5.6,2-5.6,2c-1.2,0.9-3.1,0.4-3.1,0.4
			c-1-0.2-2.9-0.3-2.9-0.3c-1.8,0.2-4.4,1.4-4.4,1.4c-3.1,0.8-5.6-0.1-5.6-0.1c-3-0.7-3.8,0.3-3.8,0.3c-1.9,2.1-3.8,3-3.8,3
			c-2.4-0.2-3.1,2.5-3.1,2.5c-0.6,0.7-2.2,2.2-2.2,2.2c-0.8,1.6-2.1,1.8-2.1,1.8c-2.1,0-4.9,3-4.9,3c-4,4.8-3.3,11.1-3.3,11.1
			C3.3,77.2,4.8,78,4.8,78c4.1,6.2,9.2,5.8,9.2,5.8c0.8-0.8,2.6-0.7,2.6-0.7c1.4,1.5,5.2,1.3,5.2,1.3c5-2.2,6-6.9,6-6.9l0.6-6.9
			c0.2-2.2-1.6-3.7-1.6-3.7c-1.7-1.7,0.1-3.3,0.1-3.3c1-0.4,4.8-1.7,4.8-1.7l3.9,1.5c1.6,0.5,1.9-0.4,1.9-0.4
			c0.9-0.3,1.6,0.2,1.6,0.2c0.7,1,1.7,1.5,1.7,1.5l2.2,0.1c2.4-0.2,3.6-1.6,3.6-1.6l1.9,0.1c0.6,1.2,0.7,0.9,0.7,0.9
			c2,2,7.3,0.8,7.3,0.8c1.7,1,2.2,3.3,2.2,3.3C60,72.7,58,81.2,58,81.2c-0.4,2.3-2.9,2.1-2.9,2.1c-0.6,0-1.9-1-1.9-1
			c-2.2-0.5-4.7,1.9-4.7,1.9c-1.9,1.6-2.3,1.3-2.3,1.3c-2.4,0.7-3.3,1.7-3.3,1.7c-0.4,1.1-1.9-0.2-1.9-0.2c-1-1-2.6-0.4-2.6-0.4
			c-0.7,0.6-2.7,1.7-2.7,1.7l-3.3-0.3c-1.3-0.2-2.2,0.7-2.2,0.7c-0.4,0.5-1,0.9-1,0.9c-0.8,0.4-4.8,0.4-4.8,0.4
			c-1.3,0.6-3.5,0.5-3.5,0.5c-3.7,0.6-4.3,3.7-4.3,3.7l-0.2-0.1c-0.4-0.5-1.5-0.6-1.5-0.6c-2.1-0.5-5.5,3-5.5,3
			c-1.6,0.5-4.7,5.1-4.7,5.1c-2,2.5-4.2,8.9-4.2,8.9c-1.2,2.5,0.3,5.5,0.3,5.5c0.5,0.8,0.1,1.6,0.1,1.6c-0.7,1.6-0.1,3.9-0.1,3.9
			v1.7c0,3.1,1.4,5.2,1.4,5.2c1.3,3,4.2,4.2,4.2,4.2c0.6,0.1,1.8,1.6,1.8,1.6c1.3,2.7,2.9,3.6,2.9,3.6c1.7,1.7,3.8,1.2,3.8,1.2
			c2.1-0.5,3.2,0.7,3.2,0.7c4,3.2,7.2,4.6,7.2,4.6c0.8,0.5,3.4,0.3,3.4,0.3c2.7-1.6,5.1-2.1,5.1-2.1c1.4-0.8,12.2-0.7,12.2-0.7
			c2.3,0.8,4.9,0.2,4.9,0.2c2.2-0.3,3.9-2.3,3.9-2.3c1.2-1.3,1.8-1.4,1.8-1.4c3.1-0.3,5.2-1.6,5.2-1.6c2.3-1.3,3.4-3.5,3.4-3.5
			c1.5,0,3.3,1.4,3.3,1.4c0.5,0.3,3,3.7,3,3.7c2.7,2.4,5.6,3.3,5.6,3.3c2.1,0.6,7.1,0,7.1,0c1.5-0.9,2.5-0.5,2.5-0.5
			c1,0.9,2.8,0.7,2.8,0.7c1.1-0.4,2.2-1.4,2.2-1.4l1.7-0.1c1.8-0.2,3.5-1.1,3.5-1.1c2.3-0.3,3.2,1.2,3.2,1.2
			c1.5,1.9,4.5,0.8,4.5,0.8c1.4-0.8,3-0.2,3-0.2c3.1,2,4.2,1.9,4.2,1.9c1.7,0.1,4.6-1.4,4.6-1.4c1-0.6,1.7-0.5,1.7-0.5
			c2.6,1,7.9,1.2,7.9,1.2c2.6,0.6,5.5-0.8,5.5-0.8c1.5-0.5,3.6,0.3,3.6,0.3c3.3,0.2,4.6,1.1,4.6,1.1l1.5,0c2.8-1.2,5.8-1.8,5.8-1.8
			c1.6-0.2,2.9,0.5,2.9,0.5c3.1,0.2,4.2-1.7,4.2-1.7c1.1-1.3,1.6-0.6,1.6-0.6c0.6,0.9,2.2,1.7,2.2,1.7l3.6-0.1
			c1.2-0.9,2.1-0.4,2.1-0.4c2.9,1.6,4,1.9,4,1.9c1.6,0.2,6.2-1.7,6.2-1.7c1.8-0.5,8,0.7,8,0.7c1.4,0.2,6.4,0.3,6.4,0.3
			c0.9-0.5,3.5-0.9,3.5-0.9c1.4,0.2,5.2,0.9,5.2,0.9c2,1,2.8,0.8,2.8,0.8c1.7-0.5,5.4-1.7,5.4-1.7c1.5-0.7,3.4,0.2,3.4,0.2
			c1.7,0.5,3.7-0.7,3.7-0.7c5-4.2,4.9-9.4,4.9-9.4C217.8,125.1,212.2,121.8,212.2,121.8z M60.6,108.8l-0.2,2.6c0,0-1.2,1.3-2.4,1.7
			c0,0-4,2.1-5.3,3.2c0,0-2.3,1.4-3.6,3.1c0,0-2.3,3.6-3,4.7c0,0-0.4,1.4-1.8,1.3c0,0-4.6-0.9-7.6-0.1c0,0-2.8,0.4-4.1,1.9
			c0,0-2.3-0.4-3.1-0.7c0,0-1.2-1.4-3.2-1.5c0,0-3.1-0.2-3.7-1.2c0,0-2.2-3.2-2.8-3.7v-2c0,0-0.9-0.6-0.1-1.7c0,0,0.6-0.2,0.4-1.4
			c0,0-0.6-1.8,0.6-2.6c0,0,1.4-1.3,2-3.1l0.1-0.2l2.4,0c0,0,1.2-1.4,2.6-1.8c0,0,3.5-0.8,5-2.9c0,0,2.3-0.4,3.3-0.2
			c0,0,1.5-0.5,2.2-1.1c0,0,2.6-0.2,3.9,0.4c0,0,3.5,0.4,6.4-0.4c0,0,8.5-2.4,9.4-3c0,0,2.4-1,2.5,0.6
			C60.4,100.6,61.6,101,60.6,108.8z"/>
	</g>
	<path class="st0" d="M195.8,43.8c0,0,2.2-3.9,8.6-6.2c0,0,3.9-0.2,7.7,2.1c0,0,0.8,0.6,1.4-0.6c0,0,6.5-4.3,16.4,4.3
		c0,0,1,1.6,2.3,2.2c0,0,4,4,2.2,12.4c0,0-0.9,2.5-1.9,4.7c0,0-0.6,6.1-0.1,7.3c0,0,1.2,3.1,3.1,4.9c0,0,1.3,2.4-0.6,5.1l-1.5,2
		c0,0-1.8,6.9-1.6,7.5c0,0,2.3,2.3,2.5,4.9c0,0-0.5,9.1-0.6,9.8c0,0-0.5,7.8,0.6,9.9c0,0,1.8,3.2,4.3,5.5c0,0,2.2,2.3,4.1,3l8.3,0.2
		c0,0,2-0.6,4.7-5c0,0,6.2-7.1,8.3-10.7c0,0,3-3,4.5-8.9l1.8-5.6c0,0-2.5-4.1-2.1-6.8l1.5-7.2c0,0-0.6-1.8-1.2-2.7
		c0,0-2.7-3.7-0.4-7c0,0,3.9-1.4,2.2-4.4l-0.5-1c0,0-4.4-0.1-6.3-1.1c0,0-2.7-1.5-3.1-2.1c0,0-2.3,1.7-6.2,0.7c0,0-7.5-1.8-9.2-7.1
		c0,0-1.5-2.6,3.9-9.6c0,0,5.1-5.6,8.4-6.9c0,0,1.8-0.2,3.3,0.4c0,0,5.7,1.5,6.3,1.4c0,0,1.7-1.1,2.3-1.9c0,0,2,0.3,3.9,1.1
		c0,0,1.8,1.6,5.1,1.3c0,0,7.4-0.5,10.3,1.4c0,0,3.6,1.8,3.3,7.2l0.1,2.8c0,0,1.7,2.5,1.3,6l-0.2,11.4l-0.9,10.4c0,0-0.1,2.4-1,3.5
		c0,0-1.8,3.5-1.6,4.3c0,0-0.3,4.9,0.2,6.3c0,0,1.8,4.5,1.5,6.1c0,0,0,2-0.6,3.1c0,0-0.6,0.9,0.5,3.5c0,0,0.5,4.8,0,7.4l-1,4.8
		c0,0-0.5,1.8,3.3,3.1c0,0,7.4,0.5,9.1,1.4c0,0,6.1,2.3,5,10.5c0,0,0,4.8-4.7,4.9l-0.9,1.1l-1.7,0.2c0,0-1.8,3-3.3,3.8
		c0,0-1.2,0.9-2.8,0.6c0,0-5.1-1.6-6.3-2.2c0,0-1.8-0.1-2.5,0.2c0,0-3.4-0.4-4.5-1.6c0,0-3.9-1.9-5.3-1.9c0,0-1.4,0.5-2.3-2.7
		c0,0-0.3-1.9-1.1-1.8c0,0-0.8,1-1.7,1.3c0,0-1.5,1.2-2.8,1.8c0,0-3.3,2.6-4.6,3.5c0,0-3.5,2-4.1,2.7c0,0-1.8,0.6-2.3,0.4
		c0,0-4.3-0.1-5.5-1c0,0-3.9,1.7-5.5,1.5c0,0-3.1,0-5.1-2.6c0,0-1,1.5-2.7,1.7c0,0-5.9,1.6-12.2-6.8c0,0-5.9-6.9-10.1-17
		c0,0-2.1-8-2.7-8.8c0,0-0.3-8.1-0.4-14.5c0,0,0.2-5.9,0.6-7.2c0,0,0.5,0.6,0.2-3.4L212.4,73c0,0-0.6-8.9-2.3-9.9
		c0,0-2.5,2.7-6.8,0.2c0,0-6.4-3.5-7.6-7.5c0,0-0.9-1.6-0.4-5.1c0,0,0.8-4.9,0.4-5.9L195.8,43.8z"/>
	<path class="st0" d="M319.8,35.6c0,0,7.4-0.4,10.3-0.8c0,0,1.1-0.3,2.4,0.8l1.1,0.9c0,0,0.2,0.9,1.3-0.2c0,0,0.9-1,3.2-1
		c0,0,4.8-0.2,7.5,0.9c0,0,4,2.4,4.6,7.7c0,0,0.1,8,4.8,3.9c0,0,4.1-4.1,4.7-5c0,0,1.8-1.8,7.1-1.4c0,0,0.4-2,1.4-2.4
		c0,0,2.5-1.9,3.9-2.4c0,0,7.4-1.8,8.8-1.5c0,0,1.8,0.6,2.4,1.4l1.8,0.2c0,0,3.1-1.9,5.3-0.1c0,0,3,2.8,5.1,6.8c0,0,1,2.7,3,4.1
		c0,0,2.7,3.9,2.5,6.3c0,0-0.4,6.2,0.4,8c0,0,1.8,4.8,1.1,7.3c0,0-0.6,5.1-5,7c0,0-2.7,1.8-3.1,3.1l-2,0.2c0,0-1.6,1.4-2.2,1.9
		c0,0-2.5,1.5-4.3-0.1l-1.6-1.4c0,0-5.3,0-9.4-6.6c0,0-4.1-5-2.7-8.5l1.7-4.7c0,0,0.3-3.1-1.4-2.3c0,0-4.2,2.2-5.1,4l-7,5.2
		c0,0-2.8,9.5-9.1,12.7c0,0-0.8,1.2-1,1.9c0,0-0.9,1.6-1.4,1.8c0,0-0.5,3.2,0.3,6.5c0,0,0.2,5.7-0.1,9.4l-1,11.2
		c0,0-0.4,5.8,0.4,6.7c0,0,4.3,4.9,8.8,5.7c0,0,6.3,1.4,11-0.1c0,0,4-1.1,6.7,1.1c0,0,4.8,4.6,3.6,8c0,0-1.7,6.8-6.7,8.4
		c0,0-5.1,0.1-6.1,0.6c0,0-3.6,0.4-4.2,0.9c0,0-4.3,0-5.9-1.6c0,0-1-0.8-1.7,0.8c0,0-1.5,1-3.3,1.2l-12.3-0.2c0,0-4.1-1.8-4.3-2.3
		c0,0-3,1.6-4.8,1.5c0,0-4.2,0.3-5.5-1.3c0,0-1.8,0.6-2.6,0.2c0,0-3.2,1.3-3.8,1.4c0,0-2.7,0.4-3.7-1.2c0,0-2.2-2.1-2.3-2.9
		c0,0-3.5-1.8-1.6-9.9c0,0,2.8-7.2,13.5-3.7c0,0,0.1,0.7,2-1c0,0,2.4-0.6,3.3-2.2c0,0,1.8-5,1.8-9.6c0,0-1.9-7.2-0.2-14.8l0.2-15.2
		l0.4-14.3c0,0,0.1-5.2-2.3-6.9l-6.6-4c0,0-4.4,3.1-6.7,2.5c0,0-4.3-0.3-9.3-5.7c0,0-3.9-4.2-3.2-8c0,0,0.9-4.3,3.5-6.5
		c0,0,2.7-2.2,4-2.4c0,0,1.1-0.2,2.4-1.2c0,0,1.5-0.4,3.5,0.3l2,0.6L319.8,35.6z"/>
	<g>
		<path class="st0" d="M497.3,72.6c-2-1.4-0.8-3.3-0.8-3.3c1-1.4-0.1-3.9-0.1-3.9c-1.4-1.8-2.2-5.4-2.2-5.4c-2-5.4-3.5-7.8-3.5-7.8
			c-0.7-1.8-3.6-3.9-3.6-3.9c-4.3-1.5-3.4-2-3.4-2c-0.8-1.3-1.3-2.4-1.3-2.4l-6.3-3.6c-1.8-1-6.3-2.5-6.3-2.5
			c-6.2-1.4-7.4-3.5-7.4-3.5c-2.1-1.4-6.9-0.6-6.9-0.6c-2.7,1-5.5-0.3-5.5-0.3c-1.2-0.3-5.7,0.3-5.7,0.3c-1.3,0.2-2.7,1.8-2.7,1.8
			l-0.5,0.5l-1.1-0.2c-2.3-0.5-5.3,0.1-5.3,0.1c-2,0-5.2,2.3-5.2,2.3l-8.4,5.8c-1.9,1.3-1.5,1.6-1.5,1.6c-0.1,2.9-1.9,2.7-1.9,2.7
			c-1.1,0-2.6,0.7-2.6,0.7c-2.3,2-5.8,8.3-5.8,8.3c-1.1,2.8-2.1,7.5-2.1,7.5c-0.8,2.4-3,6-3,6c-1.3,1.4-2.4,5.7-2.4,5.7
			c-0.2,2.2-0.1,6-0.1,6c1,0.9,0.6,2.4,0.6,2.4c-1.2,1.4-1.4,5-1.4,5c-0.1,3.8,1.9,11.2,1.9,11.2c0.2,3.2,1.8,6.3,1.8,6.3
			c0.6,1.2,6.9,11.8,6.9,11.8c1.1,1,2.2,5.6,2.2,5.6c0.2,3.2,1.6,4.6,1.6,4.6c6.4,6.6,12.2,8.1,12.2,8.1c1,0.4,7.1,0.8,7.1,0.8
			c1,2.5,5.7,5.2,5.7,5.2c2.2,0.9,10.5,0.7,10.5,0.7c2.3-0.2,3.7-1.1,3.7-1.1c1.7,0.1,2.5-0.3,2.5-0.3c2.2-0.9,4.4,0.7,4.4,0.7
			c2.4,0.5,4.5-0.6,4.5-0.6c2-0.4,13-6.4,13-6.4c2.2-0.9,3.3-2.1,3.3-2.1c5.9-1.4,8.4-4.3,8.4-4.3c3.6-4.5,5.1-10.3,5.1-10.3
			c1.6-6.5,0-10.2,0-10.2c-1.8-4.6-6.7-4.5-6.7-4.5h-6.8c-1.7,0.4-3.2,2.4-3.2,2.4l-2.4,2.8c-1.4,1.3-3.7,4.5-3.7,4.5
			c-0.9,2.7-2.6,3.3-2.6,3.3c-1.1,0.8-2.4,2.2-2.4,2.2c-1.3,2.2-3.1,2.9-3.1,2.9l-5.4,0.4c-1.8,0.2-4.3,1.4-4.3,1.4l-3-0.2
			c-0.7-0.8-3.6-1.9-3.6-1.9c-4.6,0.1-5.8-0.7-5.8-0.7l-2.1-2.2c-0.9-1.1-1.8-1.4-1.8-1.4c-1-0.6-4-0.6-4-0.6
			c-4.3-1.6-5.9-6.8-5.9-6.8c-0.1-2.4-1.4-6.5-1.4-6.5c-1.8-4.7-1-5.5-1-5.5c0.2-0.4,2.7-1.4,2.7-1.4c1.5-1.3,4.7-0.1,4.7-0.1
			c4,0.7,4.7-0.6,4.7-0.6c3.9-1,5.1,0.2,5.1,0.2c1.9,1.5,4.9-0.1,4.9-0.1c2.4-2,5.5-1.8,5.5-1.8c2.8,0.1,13.7,1.5,13.7,1.5
			c2.4,0.6,6.4-0.5,6.4-0.5c3.8-1.7,7.2-0.7,7.2-0.7c2.3,1.7,5.8,0.5,5.8,0.5c6.7-1.8,8.6-7.4,8.6-7.4c0.4-0.6,0.6-2.9,0.6-2.9
			c0.8-1.1,2.2-4.3,2.2-4.3v-3.4C499.1,75.3,497.3,72.6,497.3,72.6z M472.2,70.3c0,0-2.2,4.3-2.7,4.8c0,0,0,0.9-3.1,0.8
			c0,0-1.9,0.8-4.4,1.4c0,0-4.6,1.8-8,1.1l-6-2c0,0-2.3-0.3-3.4,0.4c0,0-1.6,1.3-3.1,0.5c0,0-2.6-0.9-3.5-1.4c0,0-0.8-0.4-4.2,0.2
			c0,0-4.8,1.7-6.2-0.1c0,0-2.3-0.4-0.5-5.7c0,0,1.6-4.3,4.5-5.5c0,0,2-0.9,4.2-0.4c0,0,2.6,0.2,2.7-1.9c0,0,0.7-3,2.7-3.7l0.6-0.2
			c0,0,7.8-3.3,9.8-3.5c0,0,2.2-1.1,4.5,0.6l2.5,1.9l3.8,0.2c0,0,3.2,1.9,4,2.3c0,0,4.7,2.2,5.4,3.8C471.7,64,473.2,66.8,472.2,70.3
			z"/>
	</g>
</g>
</svg>
