<?xml version="1.0" encoding="utf-8"?>
<!-- Generator: Adobe Illustrator 24.0.1, SVG Export Plug-In . SVG Version: 6.00 Build 0)  -->
<svg version="1.1" id="레이어_1" xmlns="http://www.w3.org/2000/svg" xmlns:xlink="http://www.w3.org/1999/xlink" x="0px"
	 y="0px" viewBox="0 0 304.67 171.89" style="enable-background:new 0 0 304.67 171.89;" xml:space="preserve">
<g>
	<path d="M252.58,91.34l-4.22-5.7h-50.2l20.41,29.48c-21.24,4.17-41.31-13.63-41.02-34.29c0.3-21.12,17.34-36.93,37.72-36.8
		C237.65,44.18,259.97,68.3,252.58,91.34 M136.49,56.75c-1.14,3.52-2.02,7.13-2.65,10.79c-0.28,1.63-0.51,3.26-0.68,4.91
		c-0.56,12.05,0.63,17.73,0.63,17.73c1.71,12.55,6.59,24.88,14.07,35.65v0c14.16,20.38,37.65,35.14,66.76,35.14
		c19.32,0,32.98-8.24,35.46-9.55l5.11,6.76h49.48l-21.97-30.58c0,0,14.89-19.43,14.95-44.75c0.12-49.73-34.71-82.03-83.31-82.11
		c-28.15-0.05-52.03,13.7-66.55,33.79c0,0,0,0,0,0C142.89,41.3,139.06,48.8,136.49,56.75"/>
	<path d="M147.79,34.47c-0.5-0.72-1.02-1.43-1.56-2.15C134.19,16.3,113.28,0.04,80.79,0C42.61-0.05,13.15,25.48,3.43,56.72
		c-0.11,0.38-0.23,0.75-0.34,1.13c-0.01,0.02-0.01,0.04-0.02,0.06C1.08,64.9,0,72.28,0,79.91c0.07,7.29,1.02,14.28,2.74,20.87
		c6.13,22.8,22.09,41.62,43.09,51.71c0.17,0.08,0.34,0.16,0.51,0.24c0.11,0.05,0.22,0.1,0.32,0.15c10.6,4.82,22.51,7.51,35.16,7.61
		c26.81-0.22,50.52-13.35,65.14-33.43c0.3-0.42,0.59-0.85,0.89-1.28c0,0,0,0,0,0c2.78-3.98,5.2-8.22,7.24-12.67
		c4.62-10.11,7.2-21.33,7.2-33.16c0-4.24-0.33-8.39-0.97-12.45v0h-27.48v0h-2.62H87.15v37.75h20.45c0,0.92-10.49,11.11-26.21,11.11
		c-17.31,0-36.9-13.66-37.29-35.55c-0.41-22.68,19.21-37.54,37.29-36.9c14.68,0.53,20.28,4.72,28.47,12.78
		c0,0,11.84,0.01,23.88,0.02c0.92,0,1.84,0,2.75,0c10.78,0.01,21.01,0.01,22.26,0.01c-0.36-1.39-0.86-2.96-1.5-4.67
		C155.37,47.04,152.27,40.83,147.79,34.47C147.79,34.47,147.79,34.47,147.79,34.47L147.79,34.47"/>
	<path d="M164.95,168.08l1.16-2.84l1.16,2.84H164.95z M161.5,171.74h1.96l0.8-1.96h3.7l0.8,1.96h2.01l-3.75-8.81h-1.77L161.5,171.74
		z M153.87,171.74h6.66v-1.71h-4.75v-1.84h4.13v-1.71h-4.13v-1.78h4.69v-1.71h-6.6V171.74z M146.76,167.24v-2.51h1.91
		c0.94,0,1.51,0.43,1.51,1.25V166c0,0.74-0.54,1.24-1.48,1.24H146.76z M144.84,171.74h1.92v-2.8h1.51l1.88,2.8h2.25l-2.14-3.13
		c1.11-0.41,1.87-1.3,1.87-2.71v-0.03c0-0.82-0.26-1.51-0.75-2c-0.57-0.57-1.44-0.89-2.55-0.89h-4V171.74z M138.49,170.12
		c-1.55,0-2.65-1.25-2.65-2.75v-0.02c0-1.5,1.07-2.73,2.63-2.73c1.55,0,2.65,1.25,2.65,2.75v0.02
		C141.11,168.89,140.04,170.12,138.49,170.12 M138.46,171.89c2.7,0,4.66-2.04,4.66-4.52v-0.02c0-2.49-1.94-4.5-4.64-4.5
		c-2.7,0-4.66,2.04-4.66,4.52v0.02C133.82,169.88,135.76,171.89,138.46,171.89 M125.77,171.74h1.92v-2.67l1.01-1.05l2.71,3.72h2.31
		l-3.73-5.04l3.56-3.71h-2.32l-3.55,3.82v-3.82h-1.92V171.74z"/>
</g>
</svg>
