<?xml version="1.0" encoding="utf-8"?>
<!-- Generator: Adobe Illustrator 24.0.1, SVG Export Plug-In . SVG Version: 6.00 Build 0)  -->
<svg version="1.1" id="레이어_1" xmlns="http://www.w3.org/2000/svg" xmlns:xlink="http://www.w3.org/1999/xlink" x="0px"
	 y="0px" viewBox="0 0 42.57 70" style="enable-background:new 0 0 42.57 70;" xml:space="preserve">
<style type="text/css">
	.st0{clip-path:url(#SVGID_2_);fill:#FFFFFF;}
	.st1{clip-path:url(#SVGID_4_);fill:#FFFFFF;}
	.st2{clip-path:url(#SVGID_6_);fill:none;}
	.st3{clip-path:url(#SVGID_8_);fill:#FFFFFF;}
	.st4{clip-path:url(#SVGID_10_);fill:#FFFFFF;}
	.st5{clip-path:url(#SVGID_12_);fill:#FFFFFF;}
	.st6{fill:#FFFFFF;}
	.st7{clip-path:url(#SVGID_14_);fill:#FFFFFF;}
</style>
<g>
	<g>
		<g>
			<defs>
				<rect id="SVGID_1_" width="42.57" height="70"/>
			</defs>
			<clipPath id="SVGID_2_">
				<use xlink:href="#SVGID_1_"  style="overflow:visible;"/>
			</clipPath>
			<path class="st0" d="M42.28,3.78h-0.92c-0.92,0-1.68,0.74-1.99,4.03L33.7,69.65h-7.07l-4.98-42.47l-3.79,42.47h-7.07L3.11,3.78
				H0.3V0.37h11.71l5,42.77l2.84-31.43L18.58,0.37H30.7v3.41h-2.38l4.58,39.51l3.48-35.75c0.25-2.31-0.27-3.76-1.6-3.76h-1.17V0.37
				h8.65L42.28,3.78L42.28,3.78z M42.57,4.15V0h-9.24v4.15h1.32c1.27,0,1.66,1.14,1.41,3.8l-3.2,32.5L28.67,4.15H31V0H18.53h-0.31h0
				l1.32,11.71l-2.58,28.52L12.27,0H0v4.15h2.87L10.5,70h7.59l3.6-39.9L26.34,70h7.6l5.69-61.86c0.33-3.36,0.97-3.99,1.73-3.99
				L42.57,4.15L42.57,4.15z"/>
		</g>
		<g>
			<defs>
				<rect id="SVGID_3_" width="42.57" height="70"/>
			</defs>
			<clipPath id="SVGID_4_">
				<use xlink:href="#SVGID_3_"  style="overflow:visible;"/>
			</clipPath>
			<path class="st1" d="M34.49,1.4v1.33h0.37c1.96,0,2.63,2.43,2.39,4.9l-4.3,44.01L27.29,2.73h2.53V1.4H19.55l1.16,10.15
				l-3.61,40.09L11.29,1.4H1.21v1.33h2.65l7.68,65.85h5.52l4.51-49.84l5.82,49.84h5.53l5.6-61.11c0.32-3.38,1.44-4.74,2.71-4.74
				h0.19V1.4H34.49z"/>
		</g>
		<g>
			<defs>
				<rect id="SVGID_5_" width="42.57" height="70"/>
			</defs>
			<clipPath id="SVGID_6_">
				<use xlink:href="#SVGID_5_"  style="overflow:visible;"/>
			</clipPath>
			<path class="st2" d="M41.4,2.73h-0.19c-1.27,0-2.39,1.37-2.71,4.74l-5.6,61.11h-5.53l-5.82-49.84l-4.51,49.84h-5.52L3.86,2.73
				H1.21V1.4h10.08l5.81,50.24l3.61-40.09L19.55,1.4h10.27v1.33h-2.53l5.66,48.91l4.31-44.01c0.25-2.47-0.43-4.9-2.39-4.9h-0.37V1.4
				h6.91V2.73z M42.28,3.78V0.37h-8.65v3.41h1.17c1.33,0,1.84,1.45,1.6,3.76L32.9,43.29L28.32,3.78h2.38V0.37H18.57l1.27,11.34
				l-2.84,31.43l-5-42.77H0.3v3.41h2.81l7.68,65.87h7.07l3.79-42.47l4.98,42.47h7.07L39.37,7.8c0.3-3.29,1.07-4.03,1.99-4.03
				L42.28,3.78L42.28,3.78z"/>
		</g>
	</g>
	<g>
		<g>
			<defs>
				<rect id="SVGID_7_" x="0.07" y="5.39" width="2.28" height="11.5"/>
			</defs>
			<clipPath id="SVGID_8_">
				<use xlink:href="#SVGID_7_"  style="overflow:visible;"/>
			</clipPath>
			<path class="st3" d="M2.31,15.45l-0.94,0.51l0.27,0.25h0.67v0.69H0.11v-0.69h0.26c0.19,0,0.39,0,0.55,0.01
				c-0.15-0.1-0.4-0.31-0.58-0.47l-0.22-0.19v-0.82l0.78,0.73l1.43-0.81V15.45z"/>
		</g>
		<g>
			<defs>
				<rect id="SVGID_9_" x="0.07" y="5.39" width="2.28" height="11.5"/>
			</defs>
			<clipPath id="SVGID_10_">
				<use xlink:href="#SVGID_9_"  style="overflow:visible;"/>
			</clipPath>
			<path class="st4" d="M2.35,13.58c0,0.66-0.4,1.12-1.14,1.12s-1.14-0.47-1.14-1.13c0-0.66,0.4-1.12,1.14-1.12
				S2.35,12.92,2.35,13.58 M0.6,13.58c0,0.27,0.21,0.42,0.6,0.42s0.61-0.16,0.61-0.43c0-0.27-0.21-0.42-0.6-0.42
				S0.6,13.31,0.6,13.58"/>
		</g>
	</g>
	<g>
		<g>
			<defs>
				<rect id="SVGID_11_" width="42.57" height="70"/>
			</defs>
			<clipPath id="SVGID_12_">
				<use xlink:href="#SVGID_11_"  style="overflow:visible;"/>
			</clipPath>
			<path class="st5" d="M2.31,10.87l-0.74,0.4v0.27h0.74v0.66H0.11v-1.08c0-0.57,0.2-0.95,0.72-0.95c0.33,0,0.54,0.17,0.65,0.44
				l0.84-0.49V10.87z M0.6,11.14v0.41h0.48v-0.4c0-0.22-0.09-0.31-0.25-0.31C0.7,10.84,0.6,10.92,0.6,11.14"/>
		</g>
	</g>
	<polygon class="st6" points="1.8,7.98 1.8,9.19 1.42,9.19 1.42,8.48 0.91,8.48 0.91,9.19 0.62,9.19 0.62,8 0.11,8 0.11,9.86 
		2.31,9.86 2.31,7.98 	"/>
	<g>
		<g>
			<defs>
				<rect id="SVGID_13_" x="0.07" y="5.39" width="2.28" height="11.5"/>
			</defs>
			<clipPath id="SVGID_14_">
				<use xlink:href="#SVGID_13_"  style="overflow:visible;"/>
			</clipPath>
			<path class="st7" d="M2.31,6.12L1.93,6.25v0.73l0.39,0.13v0.72L0.11,6.95V6.27l2.21-0.88V6.12z M1.29,6.46
				c-0.28,0.09-0.4,0.13-0.55,0.16c0.15,0.03,0.27,0.07,0.55,0.16l0.15,0.05v-0.4L1.29,6.46z"/>
		</g>
	</g>
</g>
</svg>
